 <svg version="1.0" xmlns="http://www.w3.org/2000/svg"  width="130" height="30" viewBox="0 0 130 30"  preserveAspectRatio="xMidYMid meet"> 
 <g transform="translate(0.000000,705.000000) scale(0.100000,-0.100000)" fill="#f02e65" stroke="none"> 
 <path d="M4160 3968 c-6 -13 -16 -48 -24 -78 -18 -67 -37 -118 -70 -195 -30 -67 -23 -88 28 -83 25 2 35 11 52 43 19 39 22 40 75 43 l55 3 18 -41 c17 -38 19 -40 63 -40 l45 0 -5 33 c-2 17 -18 73 -36 122 -17 50 -38 115 -46 146 -17 62 -27 69 -103 69 -35 0 -44 -4 -52 -22z m90 -128 c6 -12 10 -33 8 -48 -3 -24 -7 -27 -38 -27 -29 0 -36 4 -38 24 -8 56 45 95 68 51z"/> 
 <path d="M4453 3974 c-11 -7 -14 -18 -9 -30 4 -10 10 -82 13 -159 2 -77 6 -146 9 -153 7 -22 178 -12 229 13 104 51 110 240 10 306 -35 23 -53 27 -138 31 -65 3 -104 0 -114 -8z m198 -93 c33 -34 38 -79 15 -136 -16 -39 -42 -55 -85 -55 l-31 0 0 94 c0 52 3 101 6 110 10 27 62 20 95 -13z"/>
 <path d="M4837 3977 c-14 -10 -15 -19 -6 -57 7 -28 9 -93 5 -168 l-6 -122 25 -10 c15 -6 31 -10 36 -10 19 0 25 43 16 121 -10 86 -4 129 16 129 13 0 41 -75 53 -140 10 -62 28 -100 48 -106 26 -8 53 25 61 74 3 20 10 45 16 54 5 10 9 23 9 30 0 7 5 30 11 51 7 27 15 37 30 37 17 0 19 -5 15 -32 -3 -18 -7 -71 -8 -118 l-3 -85 48 -3 c33 -2 48 1 49 10 7 54 1 348 -7 349 -97 6 -136 5 -143 -5 -4 -6 -12 -42 -19 -80 -20 -117 -52 -118 -72 -2 -8 42 -19 80 -25 83 -20 13 -133 13 -149 0z"/> 
 <path d="M5335 3984 c-8 -3 -12 -276 -6 -357 1 -5 20 -7 44 -5 l42 3 5 170 c3 94 1 176 -4 183 -8 11 -59 15 -81 6z"/> 
 <path d="M5495 3984 c-6 -2 -10 -72 -9 -181 l0 -178 36 -3 c45 -4 49 7 36 98 -9 63 -9 74 6 88 16 16 18 16 34 -5 9 -12 33 -49 52 -83 19 -34 45 -73 57 -86 24 -26 64 -32 82 -11 7 9 12 79 14 186 4 170 3 172 -19 177 -12 3 -33 4 -45 2 -23 -3 -24 -5 -21 -85 2 -45 1 -87 -3 -93 -11 -18 -43 18 -86 96 -33 60 -45 73 -70 78 -34 7 -49 7 -64 0z"/> 
 <path d="M3308 3959 c-20 -11 -52 -35 -70 -52 -38 -36 -128 -161 -128 -178 0 -6 -6 -23 -14 -37 -50 -98 -63 -285 -26 -392 29 -85 173 -220 235 -220 13 0 26 -4 29 -9 7 -11 135 -39 206 -45 52 -4 167 16 200 35 8 5 24 13 35 18 11 5 38 25 61 44 43 37 84 124 84 175 0 35 -36 197 -53 242 -18 49 -84 175 -99 191 -7 8 -25 32 -40 54 -36 53 -141 145 -197 172 -61 30 -169 31 -223 2z m183 -69 c10 -6 19 -21 20 -33 l0 -22 9 23 c12 29 19 28 55 -9 26 -26 28 -32 16 -50 -12 -20 -11 -20 16 -15 25 6 30 2 47 -34 10 -22 36 -63 57 -91 22 -28 39 -57 39 -65 0 -7 9 -18 19 -24 25 -13 30 -47 13 -83 -17 -34 -8 -109 13 -127 8 -7 15 -22 15 -34 0 -12 5 -27 11 -33 27 -27 -39 -153 -80 -153 -9 0 -48 -11 -88 -25 -119 -40 -280 -19 -337 45 -19 22 -35 30 -60 30 -30 0 -39 6 -65 46 -17 25 -31 48 -31 51 0 4 -6 14 -13 22 -28 34 -38 97 -27 168 6 38 15 77 20 88 5 11 11 39 13 63 4 29 14 51 31 67 14 13 26 33 26 43 0 11 7 25 15 32 8 7 15 18 15 24 0 20 77 86 101 86 12 0 30 -7 40 -16 24 -21 53 -11 46 16 -4 16 0 20 20 20 13 0 33 -5 44 -10z m337 -449 c7 -21 12 -52 12 -69 l0 -31 -24 22 c-21 19 -23 29 -19 70 3 26 9 47 13 47 4 0 12 -17 18 -39z"/> 
 <path d="M4028 3579 c-22 -12 -23 -57 -3 -95 8 -16 15 -37 15 -47 0 -9 4 -25 9 -35 9 -17 23 -67 43 -152 15 -66 39 -87 95 -85 54 1 80 26 89 86 9 54 29 49 49 -11 19 -57 45 -80 90 -80 48 0 71 33 99 140 46 180 45 259 -3 123 -12 -38 -29 -82 -37 -100 -8 -17 -14 -40 -14 -52 0 -26 -42 -55 -70 -46 -11 3 -20 10 -20 15 0 5 -5 21 -12 37 -6 15 -16 46 -22 67 -19 67 -65 74 -66 10 0 -12 -7 -35 -15 -50 -8 -16 -15 -37 -15 -47 0 -10 -12 -22 -27 -28 -42 -16 -70 2 -79 48 -4 21 -13 50 -20 65 -8 15 -14 36 -14 46 0 10 -7 34 -17 52 -15 31 -21 94 -12 129 5 18 -20 24 -43 10z"/> 
 <path d="M4715 3581 l-50 -6 40 -7 c22 -4 57 -8 77 -8 20 0 40 -4 43 -10 3 -5 17 -10 30 -10 30 0 65 -44 65 -81 0 -19 -12 -42 -35 -68 -39 -43 -42 -53 -20 -71 8 -7 15 -19 15 -28 0 -8 8 -24 17 -34 14 -16 15 -20 2 -33 -12 -12 -19 -12 -46 0 -25 10 -36 25 -50 65 -36 102 -93 98 -103 -7 -4 -49 -8 -58 -26 -61 -35 -5 -44 20 -47 132 -2 64 -8 111 -15 118 -17 17 -15 38 5 60 15 17 14 18 -33 18 l-49 0 29 -27 29 -26 -7 -148 c-7 -141 -6 -149 13 -168 17 -17 29 -20 68 -15 60 8 74 24 66 79 -3 25 -1 45 5 49 11 7 52 -53 52 -76 0 -8 11 -25 24 -37 22 -20 31 -22 71 -17 63 10 76 37 46 98 -11 25 -21 57 -21 72 0 30 38 88 52 80 5 -4 8 -54 7 -113 -2 -58 0 -111 4 -117 3 -6 30 -14 58 -18 85 -11 89 -3 89 176 0 115 3 148 13 148 7 0 18 -5 24 -11 18 -18 37 0 20 19 -8 10 -17 26 -19 37 -2 12 -13 21 -28 23 -14 2 -30 8 -37 14 -21 17 -36 -1 -21 -25 10 -17 13 -59 10 -170 -4 -146 -4 -147 -28 -153 -54 -14 -56 -9 -53 178 2 125 -1 173 -9 176 -12 4 -16 -3 -26 -51 l-7 -28 -28 28 c-42 42 -132 64 -216 54z"/> 
 <path d="M5577 3583 c-17 -16 -4 -23 42 -23 53 0 75 14 38 24 -30 8 -72 8 -80 -1z"/> 
 <path d="M4123 3564 c-3 -8 2 -29 10 -47 9 -18 23 -57 32 -88 18 -68 38 -90 54 -60 6 10 17 44 25 74 8 30 26 73 40 96 l26 41 -29 0 c-30 0 -41 -16 -59 -90 -10 -42 -21 -42 -37 2 -26 70 -35 88 -45 88 -6 0 -13 -7 -17 -16z"/> 
 <path d="M5270 3570 c0 -5 11 -10 25 -10 14 0 25 5 25 10 0 6 -11 10 -25 10 -14 0 -25 -4 -25 -10z"/> 
 <path d="M5774 3544 c-1 -46 -17 -56 -82 -50 -44 4 -57 1 -73 -15 -18 -18 -19 -23 -6 -42 8 -13 29 -24 48 -27 32 -5 34 -7 33 -43 -1 -41 9 -46 44 -21 42 29 15 94 -39 94 -24 0 -30 4 -27 18 3 14 13 17 70 14 58 -2 69 0 78 17 22 42 6 91 -29 91 -11 0 -16 -11 -17 -36z"/> 
 <path d="M5450 3546 c0 -35 -26 -57 -57 -50 -16 4 -28 2 -34 -7 -5 -8 -9 -67 -9 -132 0 -115 -1 -118 -24 -129 -50 -22 -56 -10 -56 125 0 126 -6 147 -41 147 -27 0 -33 -19 -14 -40 14 -16 17 -39 16 -143 -2 -103 1 -128 14 -141 21 -21 93 -21 123 0 21 14 22 22 22 147 0 73 4 137 8 143 4 5 27 10 52 10 l45 -1 -3 -137 c-3 -181 -11 -173 170 -172 92 1 142 5 152 13 21 17 29 66 16 90 -9 19 -20 21 -91 21 l-81 0 7 29 c8 37 -17 49 -45 21 -46 -46 -15 -77 77 -79 70 -1 96 -12 75 -33 -12 -12 -201 -16 -220 -4 -8 5 -12 43 -12 109 0 56 -5 120 -10 141 -5 26 -5 46 1 59 13 23 13 23 -38 31 -41 6 -43 5 -43 -18z"/> 
 <path d="M4340 3547 c0 -8 3 -17 7 -21 13 -13 43 -101 43 -126 0 -35 18 -52 42 -39 11 6 18 21 18 39 0 17 9 57 21 91 12 33 18 63 14 67 -9 9 -35 -27 -35 -48 0 -19 -19 -40 -36 -40 -7 0 -16 15 -19 33 -4 17 -12 38 -17 45 -14 16 -38 16 -38 -1z"/> 
 <path d="M4730 3497 c-30 -15 -38 -58 -15 -81 13 -12 27 -14 58 -9 45 7 57 16 57 49 0 40 -57 63 -100 41z m57 -33 c10 -26 -14 -41 -35 -21 -15 16 -15 19 -2 27 21 14 30 12 37 -6z"/> </g> </svg> 